<?xml version="1.0" encoding="UTF-8" standalone="no"?>
<!-- Created with Inkscape (http://www.inkscape.org/) -->

<svg
   xmlns:dc="http://purl.org/dc/elements/1.1/"
   xmlns:cc="http://creativecommons.org/ns#"
   xmlns:rdf="http://www.w3.org/1999/02/22-rdf-syntax-ns#"
   xmlns:svg="http://www.w3.org/2000/svg"
   xmlns="http://www.w3.org/2000/svg"
   xmlns:sodipodi="http://sodipodi.sourceforge.net/DTD/sodipodi-0.dtd"
   xmlns:inkscape="http://www.inkscape.org/namespaces/inkscape"
   width="150"
   height="1150"
   id="svg2"
   version="1.1"
   inkscape:version="0.48.4 r9939"
   sodipodi:docname="TextoPrueva.svg">
  <defs
     id="defs4" />
  <sodipodi:namedview
     id="base"
     pagecolor="#ffffff"
     bordercolor="#666666"
     borderopacity="1.0"
     inkscape:pageopacity="0.0"
     inkscape:pageshadow="2"
     inkscape:zoom="1.4"
     inkscape:cx="146.86032"
     inkscape:cy="95.355444"
     inkscape:document-units="px"
     inkscape:current-layer="layer1"
     showgrid="false"
     inkscape:window-width="1366"
     inkscape:window-height="703"
     inkscape:window-x="0"
     inkscape:window-y="0"
     inkscape:window-maximized="1"
     borderlayer="false" />
  <metadata
     id="metadata7">
    <rdf:RDF>
      <cc:Work
         rdf:about="">
        <dc:format>image/svg+xml</dc:format>
        <dc:type
           rdf:resource="http://purl.org/dc/dcmitype/StillImage" />
        <dc:title></dc:title>
      </cc:Work>
    </rdf:RDF>
  </metadata>
  <g
     inkscape:label="Layer 1"
     inkscape:groupmode="layer"
     id="layer1"
     transform="translate(0,97.637817)">
    <g
       style="font-size:169.29953003px;font-style:normal;font-weight:normal;line-height:125%;letter-spacing:0px;word-spacing:0px;writing-mode:tb-rl;fill:#000000;fill-opacity:1;stroke:none;font-family:Sans"
       id="text3005"
       transform="translate(-464.43391,-165.73048)">
      <path
         d="m 562.15625,74.875 c -32.53138,-0.611284 -62.3369,27.03318 -64.8125,59.28125 -4.99,29.53254 4.27539,63.93868 31,80.09375 29.82471,17.99336 74.83549,9.28334 91.75,-22.4375 C 636.44993,161.90692 634.45212,121.3336 611.75,95.1875 599.01926,81.78221 580.60387,74.399389 562.15625,74.875 z m 2.03125,9.5 c 17.62415,1.3e-4 31.92866,6.021767 42.5625,17.9375 l 0.0312,0 c 0.005,0.006 -0.005,0.0252 0,0.0312 10.62917,11.88348 15.93737,27.82924 15.9375,47.59375 -1.3e-4,19.72034 -5.30045,35.6865 -15.9375,47.625 -10.63769,11.88241 -24.95473,17.875 -42.59375,17.875 -17.6932,0 -32.0882,-5.99379 -42.78125,-17.875 -10.64018,-11.88526 -15.93751,-27.8503 -15.9375,-47.625 -1e-5,-19.77458 5.29733,-35.73962 15.9375,-47.625 10.69218,-11.936683 25.08647,-17.93737 42.78125,-17.9375 z m 0,3 c -17.02495,1.2e-4 -30.42297,5.617797 -40.5625,16.9375 -10.08142,11.26124 -15.15626,26.38149 -15.15625,45.625 -10e-6,19.24363 5.07484,34.36389 15.15625,45.625 10.13866,11.26522 23.53597,16.875 40.5625,16.875 16.97022,0 30.29093,-5.61099 40.375,-16.875 10.08427,-11.31809 15.15613,-26.43723 15.15625,-45.625 -1.2e-4,-19.24351 -5.07496,-34.36376 -15.15625,-45.625 C 594.47756,92.993987 581.15614,87.37512 564.1875,87.375 z m 0,10.5625 c 12.49696,1.2e-4 22.62681,4.75841 29.9375,14.125 7.36835,9.36774 10.96864,22.05089 10.96875,37.875 -1.1e-4,15.76993 -3.60131,28.44604 -10.96875,37.8125 -7.31069,9.36672 -17.44053,14.12501 -29.9375,14.125 -12.4971,1e-5 -22.7048,-4.76406 -30.125,-14.125 -7.36758,-9.36647 -10.96878,-22.04256 -10.96875,-37.8125 -3e-5,-15.82412 3.60026,-28.50725 10.96875,-37.875 7.4202,-9.36082 17.62791,-14.12488 30.125,-14.125 z m 0,3 c -11.75165,1.1e-4 -20.8728,4.28478 -27.78125,13 -6.85009,8.70868 -10.31253,20.63172 -10.3125,36 -3e-5,15.30051 3.47212,27.22958 10.3125,35.9375 0.005,0.007 -0.005,0.0242 0,0.0312 6.90669,8.70313 16.03777,12.96876 27.78125,12.96875 11.75151,10e-6 20.76472,-4.25919 27.5625,-12.96875 6.85087,-8.70972 10.34365,-20.65625 10.34375,-35.96875 -10e-5,-15.36829 -3.49379,-27.29131 -10.34375,-36 l 0,-0.0312 c -6.79778,-8.70944 -15.81099,-12.96864 -27.5625,-12.96875 z m -0.25,7.59375 c 16.67342,0.0325 28.95255,17.07328 28.53125,32.9375 2.20417,16.82505 -1.31605,37.62216 -17.65625,46.1875 -16.03385,7.6166 -37.1733,-4.19675 -38.90625,-21.875 -4.23376,-17.24127 -3.03541,-38.49738 10.59375,-51.25 4.45726,-3.6109 10.07233,-5.77268 15.8125,-5.96875 0.54672,-0.035 1.08715,-0.0323 1.625,-0.0312 z m -36.3125,165.875 -1,0.0312 -0.0937,0 c -5.76418,0.39194 -14.2054,0.18622 -15.125,7.4375 -1.0324,9.27854 0.51891,18.66793 -0.25,28 l 0,108.09375 36.65625,0 c 0.39273,-17.3941 -0.38204,-34.79716 0.25,-52.1875 9.31434,-1.65589 21.27501,1.07598 24.40625,11.125 7.63813,13.33819 13.36104,27.63528 20.84375,41.0625 l 41.03125,0 c -13.67534,-21.27112 -21.03079,-46.2424 -36.4688,-66.4062 21.54302,-19.36822 16.19036,-60.94072 -11.3125,-72.15625 -18.5611,-7.95921 -39.28931,-3.50663 -58.9375,-5 z m -7.28125,9.28125 1.5,0 37.6875,0 c 14.3172,1.3e-4 25.23645,2.99762 32.5625,9.21875 7.32342,6.21929 10.9374,15.64831 10.9375,27.84375 -10e-5,8.00469 -1.87448,14.77052 -5.71875,20.1875 -3.14005,4.49263 -7.5866,7.77879 -13.0625,9.96875 2.66913,1.53366 5.2287,3.72292 7.6875,6.625 3.53774,4.1085 6.98308,9.66746 10.4375,16.6875 l 16.96875,33.71875 1.09375,2.1875 -2.4375,0 -17.9375,0 -0.9375,0 -0.40625,-0.84375 -15.8125,-31.65625 c -4.0239,-8.15637 -7.93422,-13.47575 -11.40625,-15.90625 -3.46801,-2.4627 -8.34096,-3.7812 -14.75,-3.78125 l -16.6875,0 0,50.6875 0,1.5 -1.5,0 -16.71875,0 -1.5,0 0,-1.5 0,-123.4375 0,-1.5 z m 3,3 0,120.4375 13.71875,0 0,-50.6875 0,-1.5 1.5,0 18.1875,0 c 6.81737,5e-5 12.33138,1.40572 16.46875,4.34375 4.2433,2.97042 8.24239,8.62329 12.375,17 L 601,407.125 l 14.5625,0 -15.84375,-31.5625 -0.0312,0 0,-0.0312 c -3.37947,-6.86773 -6.73546,-12.20374 -10.03125,-16.03125 -3.24068,-3.82492 -6.5036,-6.24489 -9.75,-7.34375 l 0.46875,-1.40625 -0.40625,-1.4375 c 6.62508,-1.90799 11.49931,-5.26397 14.875,-10.09375 l 0.0312,0 c 3.43013,-4.83343 5.15616,-10.93212 5.15625,-18.46875 -9e-5,-11.61211 -3.31075,-19.98792 -9.875,-25.5625 -6.56196,-5.57228 -16.72575,-8.49988 -30.625,-8.5 l -36.1875,0 z m 15.21875,10.71875 20.96875,0 c 8.25572,1.1e-4 14.74634,1.90427 19.1875,5.90625 0.0106,0.01 0.0207,0.0213 0.0312,0.0312 4.48018,3.96251 6.68742,9.9192 6.6875,17.40625 -8e-5,7.50581 -2.19919,13.4931 -6.6875,17.5625 -4.44208,4.02189 -10.94322,5.90632 -19.21875,5.90625 l -20.96875,0 -1.5,0 0,-1.5 0,-43.8125 1.5,0 0,-1.5 z m 1.5,3 0,40.8125 19.46875,0 c 7.81661,6e-5 13.47309,-1.7932 17.1875,-5.15625 3.77811,-3.42548 5.71867,-8.37919 5.71875,-15.3125 -8e-5,-6.93313 -1.92375,-11.844 -5.6875,-15.15625 l -0.0312,-0.0312 c -3.71441,-3.3629 -9.37087,-5.15614 -17.1875,-5.15625 l -19.46875,0 z m 22.4375,7.75 c 11.65131,-0.42934 15.51555,18.771 4.5625,22.875 -6.12577,2.4001 -12.81387,0.61191 -19.1875,0.9375 l 0,-23.6875 c 4.87454,-0.0256 9.75317,0.0747 14.625,-0.125 z m -17.4375,163.46875 0,143.40625 36.6875,0 0,-143.40625 -36.6875,0 z m 10.6875,9.15625 16.6875,0 1.5,0 0,1.5 0,123.40625 0,1.5 -1.5,0 -16.6875,0 -1.5,0 0,-1.5 0,-123.40625 1.5,0 0,-1.5 z m 1.5,3 0,120.40625 13.6875,0 0,-120.40625 -13.6875,0 z m 1.0625,180.59375 c -23.62553,0.36631 -47.62716,17.6961 -49.65625,42.21875 -2.77426,22.44983 14.28896,45.26128 36.625,48.90625 11.08453,2.8792 24.80096,1.56428 32.90625,11.15625 2.02712,7.96381 -7.14397,13.1999 -14.0625,12.03125 -20.45365,1.57406 -38.77246,-9.72327 -54.78125,-21 l 0,47.1875 c 27.97778,12.12225 62.59248,17.79028 90.375,2.21875 26.99018,-16.54774 26.71383,-62.09326 -0.53125,-78.375 -13.78495,-9.55237 -32.07959,-7.1601 -46.59375,-14.9375 -6.08074,-2.3475 -1.49155,-10.00408 3.34375,-10.78125 20.09492,-4.27321 39.35574,6.30059 56.34375,15.6875 l 0,-44.5625 c -16.52992,-6.12849 -33.99845,-10.13287 -51.6875,-9.75 -0.76059,-0.0239 -1.51914,-0.0118 -2.28125,0 z m 6.53125,11.25 c 5.877,1.3e-4 11.85014,0.53279 17.9375,1.59375 6.08645,1.06108 12.30868,2.63429 18.65625,4.75 l -0.46875,1.4375 1.5,0 0,16.28125 0,2.375 -2.15625,-1.03125 c -6.26828,-2.99773 -12.17504,-5.22819 -17.6875,-6.6875 -5.51,-1.4584 -10.78165,-2.18739 -15.875,-2.1875 -8.89936,1.1e-4 -15.61166,1.75517 -20.21875,5.03125 -4.55012,3.27207 -6.71878,7.68668 -6.71875,13.8125 -3e-5,5.13795 1.44652,8.75455 4.3125,11.25 0.0112,0.01 0.0199,0.0213 0.0312,0.0312 2.91215,2.40877 8.96089,4.66164 17.96875,6.34375 l 0.0312,0 10.0625,2.0625 0.0312,0 c 12.61402,2.40417 22.05716,6.701 28.25,13 0.005,0.006 0.0263,-0.006 0.0312,0 6.23809,6.24817 9.3749,14.71409 9.375,25.03125 -1e-4,12.2954 -4.23901,21.91788 -12.65625,28.375 -8.36208,6.45893 -20.43972,9.5625 -36.125,9.5625 -5.95497,0 -12.30349,-0.66069 -19,-2 -6.64202,-1.33956 -13.50723,-3.32393 -20.625,-5.9375 l -0.96875,-0.375 0,-1.03125 0,-17.1875 0,-2.5625 2.21875,1.25 c 6.69445,3.75545 13.24335,6.57591 19.625,8.46875 6.37675,1.89143 12.62087,2.81251 18.75,2.8125 9.33753,10e-6 16.3611,-1.8211 21.1875,-5.3125 4.82384,-3.48962 7.15617,-8.2728 7.15625,-14.84375 -8e-5,-5.75304 -1.73517,-9.97442 -5.15625,-13.09375 l 0,-0.0312 c -3.36347,-3.11236 -9.19269,-5.63389 -17.53125,-7.3125 l -10.15625,-1.96875 -0.0312,0 c -12.6134,-2.51145 -21.86374,-6.4363 -27.75,-12.03125 -5.88854,-5.59694 -8.81251,-13.4682 -8.8125,-23.1875 -1e-5,-11.2628 4.04164,-20.38477 12.03125,-26.9375 8.04766,-6.55299 19.04649,-9.74987 32.78125,-9.75 z m 0,3 c -13.26947,1.2e-4 -23.49177,3.05054 -30.875,9.0625 -7.33114,6.01269 -10.93751,14.06423 -10.9375,24.625 -10e-6,9.12866 2.63119,16.01586 7.875,21 5.24602,4.9864 13.98463,8.83287 26.28125,11.28125 l 10.15625,1.96875 0.0312,0 c 8.63535,1.73835 14.94727,4.34125 18.96875,8.0625 4.07379,3.71446 6.12492,8.9413 6.125,15.3125 -8e-5,7.31696 -2.86946,13.24463 -8.40625,17.25 -5.53452,4.00365 -13.20691,5.90626 -22.9375,5.90625 -6.43615,10e-6 -12.99574,-0.97117 -19.625,-2.9375 -5.89474,-1.74842 -11.88556,-4.38315 -17.96875,-7.625 l 0,13.71875 c 6.62505,2.38266 13.02947,4.2268 19.1875,5.46875 6.52994,1.30599 12.6777,1.9375 18.40625,1.9375 15.2867,0 26.66112,-3.05167 34.28125,-8.9375 7.67485,-5.88761 11.4999,-14.37739 11.5,-26 -10e-5,-9.73337 -2.84605,-17.28341 -8.5,-22.9375 -5.59615,-5.70061 -14.48101,-9.8218 -26.75,-12.15625 l -10.0625,-2.0625 c -0.0115,-0.002 -0.0198,0.002 -0.0312,0 -9.24073,-1.72809 -15.63625,-3.91029 -19.34375,-7 l 0,-0.0312 -0.0312,0 c -3.61485,-3.12458 -5.37503,-7.77724 -5.375,-13.53125 -3e-5,-6.88007 2.70914,-12.46772 7.96875,-16.25 5.31272,-3.77785 12.68154,-5.59364 21.96875,-5.59375 5.37752,1.2e-4 10.92357,0.76391 16.65625,2.28125 5.07875,1.34449 10.45232,3.40795 16.0625,5.96875 l 0,-12.90625 c -5.85388,-1.90115 -11.59228,-3.36831 -17.1875,-4.34375 -5.92686,-1.03299 -11.74141,-1.53113 -17.4375,-1.53125 z m -0.125,184.53125 c -1.17329,-0.0195 -2.35787,-0.0113 -3.53125,0.0312 -32.69485,-0.0486 -61.98166,28.03284 -64,60.46875 -4.62545,28.79458 4.61166,62.2461 30.3125,78.3438 29.96368,19.0452 76.10102,9.9636 93.0625,-22.56255 15.82229,-29.7503 13.6823,-69.94516 -8.75,-95.9375 -12.08737,-12.83315 -29.49443,-20.05197 -47.09375,-20.34375 z m -0.53125,9.53125 c 17.6406,1.3e-4 31.95694,5.99962 42.59375,17.9375 10.64003,11.88538 15.93737,27.85042 15.9375,47.625 -1.3e-4,19.72034 -5.30045,35.6866 -15.9375,47.625 -10.63769,11.8825 -24.95473,17.875 -42.59375,17.875 -17.6932,0 -32.0882,-5.9937 -42.78125,-17.875 -10.64018,-11.8852 -15.93751,-27.8503 -15.9375,-47.625 -10e-6,-19.77458 5.29733,-35.73962 15.9375,-47.625 10.69218,-11.93669 25.08647,-17.93737 42.78125,-17.9375 z m 0,3 c -17.02495,1.2e-4 -30.42297,5.61779 -40.5625,16.9375 -10.08142,11.26124 -15.15626,26.38149 -15.15625,45.625 -10e-6,19.24363 5.07484,34.3639 15.15625,45.625 10.13866,11.2653 23.53597,16.875 40.5625,16.875 16.97022,0 30.29093,-5.6109 40.375,-16.875 10.08427,-11.318 15.15613,-26.43723 15.15625,-45.625 -1.2e-4,-19.24351 -5.07496,-34.36376 -15.15625,-45.625 -10.08494,-11.31852 -23.40636,-16.93738 -40.375,-16.9375 z m 0,10.5625 c 12.49696,1.2e-4 22.62681,4.75841 29.9375,14.125 7.36835,9.36774 10.96864,22.05089 10.96875,37.875 -1.1e-4,15.7584 -3.61218,28.41682 -10.96875,37.78125 -0.005,0.006 0.005,0.0213 0,0.0312 l -0.0312,0 c -7.30857,9.3429 -17.4253,14.125 -29.90625,14.125 -12.4971,0 -22.7048,-4.7641 -30.125,-14.125 -7.36758,-9.36652 -10.96878,-22.04256 -10.96875,-37.8125 -3e-5,-15.82412 3.60026,-28.50725 10.96875,-37.875 7.4202,-9.36082 17.62791,-14.12488 30.125,-14.125 z m 0,3 c -11.75165,1.1e-4 -20.8728,4.25353 -27.78125,12.96875 -6.85009,8.70868 -10.31253,20.66297 -10.3125,36.03125 -3e-5,15.31249 3.46151,27.22773 10.3125,35.9375 6.90845,8.7153 16.02961,13 27.78125,13 11.75151,0 20.76472,-4.2905 27.5625,-13 6.85087,-8.70977 10.34365,-20.625 10.34375,-35.9375 -10e-5,-15.36829 -3.49379,-27.32256 -10.34375,-36.03125 -6.79778,-8.70944 -15.81099,-12.96864 -27.5625,-12.96875 z m -0.59375,7.5625 c 17.5913,-0.23167 29.61479,18.02695 29.0625,34.25 1.98915,16.77936 -2.19207,37.47737 -18.75,45.28125 -15.87396,6.77762 -36.10424,-4.83275 -37.9375,-22.0625 -4.5132,-17.64951 -3.04118,-39.573 11.5,-52.21875 4.61167,-3.44305 10.36949,-5.2674 16.125,-5.25 z m -40.6875,166.0313 0,143.4374 96.78125,0 0,-34.0624 -60.09375,0 0,-109.375 -36.6875,0 z m 10.6875,9.1562 16.6875,0 1.5,0 0,1.5 0,107.875 58.59375,0 1.5,0 0,1.5 0,14.0312 0,1.5 -1.5,0 -76.78125,0 -1.5,0 0,-1.5 0,-123.4062 1.5,0 0,-1.5 z m 1.5,3 0,120.4062 73.78125,0 0,-11.0312 -58.59375,0 -1.5,0 0,-1.5 0,-107.875 -13.6875,0 z"
         transform="translate(-25.75889,2.5253814)"
         id="path3010"
         inkscape:connector-curvature="0" />
    </g>
  </g>
</svg>
