<?xml version="1.0" encoding="UTF-8" standalone="no"?>
<!-- Created with Inkscape (http://www.inkscape.org/) -->

<svg
   xmlns:dc="http://purl.org/dc/elements/1.1/"
   xmlns:cc="http://creativecommons.org/ns#"
   xmlns:rdf="http://www.w3.org/1999/02/22-rdf-syntax-ns#"
   xmlns:svg="http://www.w3.org/2000/svg"
   xmlns="http://www.w3.org/2000/svg"
   xmlns:sodipodi="http://sodipodi.sourceforge.net/DTD/sodipodi-0.dtd"
   xmlns:inkscape="http://www.inkscape.org/namespaces/inkscape"
   width="1052.3622"
   height="610"
   id="svg2"
   version="1.1"
   inkscape:version="0.48.4 r9939"
   sodipodi:docname="Electro.svg">
  <defs
     id="defs4" />
  <sodipodi:namedview
     id="base"
     pagecolor="#ffffff"
     bordercolor="#666666"
     borderopacity="1.0"
     inkscape:pageopacity="0.0"
     inkscape:pageshadow="2"
     inkscape:zoom="0.24748737"
     inkscape:cx="120.76476"
     inkscape:cy="832.89991"
     inkscape:document-units="px"
     inkscape:current-layer="layer1"
     showgrid="false"
     inkscape:window-width="1366"
     inkscape:window-height="703"
     inkscape:window-x="0"
     inkscape:window-y="0"
     inkscape:window-maximized="1" />
  <metadata
     id="metadata7">
    <rdf:RDF>
      <cc:Work
         rdf:about="">
        <dc:format>image/svg+xml</dc:format>
        <dc:type
           rdf:resource="http://purl.org/dc/dcmitype/StillImage" />
        <dc:title></dc:title>
      </cc:Work>
    </rdf:RDF>
  </metadata>
  <g
     inkscape:label="Layer 1"
     inkscape:groupmode="layer"
     id="layer1"
     transform="translate(0,-442.36218)">
    <path
       style="fill:#000000;stroke:none"
       d="m 8.5201813,702.14056 262.5635787,0.41262 44.45015,-56.52888 c 0,0 6.9495,-0.42809 8.72522,-0.33797 3.93946,4.03286 59.91055,69.34195 89.42817,101.03906 l 5.36011,-0.51744 70.88989,-302.50881 8.17973,-0.55516 20.13944,552.80454 2.30096,-0.0229 56.67595,-320.67331 11.56756,-0.36219 18.29266,22.84911 436.8265,3.30096 -0.061,8.09124 -440.51649,0.57781 -14.34691,-14.34691 -3.90847,0.17626 -64.9444,354.83341 -8.33263,1.2084 -20.87404,-555.56392 -2.67698,0.36441 c -21.0444,88.38651 -35.06164,181.29541 -62.54968,269.68192 -3.00712,0.9524 -3.46592,0.34872 -8.52672,0.20701 L 324.37495,660.63569 318.8101,660.32839 274.53609,713.0102 8.4420813,709.90375 z"
       id="path3052"
       inkscape:connector-curvature="0"
       sodipodi:nodetypes="ccccccccccccccccccccccccccccc" />
  </g>
</svg>
